<svg width="24" height="24" viewBox="0 0 24 24" fill="none" xmlns="http://www.w3.org/2000/svg">
<path d="M13.7384 18.5417C13.7384 19.5025 12.961 20.2799 12.0001 20.2799C11.0393 20.2799 10.2619 19.5025 10.2619 18.5417H13.7384Z" fill="#656D72"/>
<path d="M18.1145 16.539L19.2413 17.6658C19.7916 18.2161 19.4073 19.1595 18.6212 19.1595H5.37041C4.59301 19.1595 4.20867 18.2161 4.75897 17.6658L5.88576 16.539V11.2981C5.88576 8.37193 7.94718 5.92617 10.6899 5.3322V4.31023C10.6899 3.58523 11.2752 3 12.0001 3C12.7251 3 13.3104 3.58523 13.3104 4.31023V5.3322C16.0531 5.92617 18.1145 8.37193 18.1145 11.2981V16.539Z" fill="#656D72"/>
</svg>
